<svg xmlns="http://www.w3.org/2000/svg" viewBox="0 0 628.6 968.7"><defs><style>.cls-1{fill:#fff;}</style></defs><title>yuge02</title><g id="レイヤー_2" data-name="レイヤー 2"><g id="レイヤー_1-2" data-name="レイヤー 1"><path class="cls-1" d="M351.9,185.7c-33.2,8.4-178.7,34.5-178.7,34.5l6-63s95,8,112,5,144-27,134-58,65-56,65-56-1-63-137-45-250,60-250,60-109,193-103,193,71-102,91-121,78-73,112-79,199-9,199-9l59,1s-130,68-130,79-64,17-64,17l-77-48s-86,107-84,123c1.8,14,167.1,34.7,210,39.8l-5-26.8S337.7,195.8,351.9,185.7Z"/><path class="cls-1" d="M358.2,183.2c-1.5-.3-3.7.7-6.3,2.5C357.1,184.4,359.6,183.5,358.2,183.2Z"/><path class="cls-1" d="M316.2,259l6.5,35.7a205.2,205.2,0,0,0,3.5-34.5Z"/><path class="cls-1" d="M128.2,559.2c9-12.1-3.1-4-17.7,6.4C117.2,567.1,123.5,565.7,128.2,559.2Z"/><path class="cls-1" d="M418.5,375.1l-67.3,94.1S401.8,411.7,418.5,375.1Z"/><path class="cls-1" d="M446.2,598.2c-58-109-130-104-130-104l-208-31s4.4-12.9,10.6-41h90.4l97.2-26.8c34.8-6.4,85.7-33,117.4-39.7.1,5.1-1.8,11.8-5.3,19.4l14.8-20.7,2.9-.2c16.9,0,11.9-3.9,2.4-7.3l7.6-10.7-16.5-35.7-104,10.2-3-16a125,125,0,0,1-4.2,16.8l-48.3,4.7-114-61s-67,14-48,35c5.5,6.1,6.3,18.3,3.9,32.5-21.9,17-45.8,47.8-19.6,51.2-10.7,17.1-24.1,29-37.3,26.3a56.2,56.2,0,0,0-18.7-.9l-5.3-1.1,3.3,1.4c-15.6,3.3-17.3,15.6-17.3,15.6s38,71,34,118,19,53,27,53c3.8,0,19.1-11.2,32.3-20.6-17.1-3.8-36.7-26.6-40.3-32.4-5-8-12-100-12-100s67,68,106,65,134,21,153,24,34,23,105,72-33,50-53,48-123-127-123-127l-41,32s-45,22-57,35,86,89,86,89-24-62,2-120c1.5-3.2,2.8-6.1,3.9-8.6,23.1,16.2,141.1,136.6,141.1,136.6s-192,30-203,34-42,17-42,17,40,3,60-4,211-19,211-19l-185,65s-132-7-139-24,3-65,25-80,26,38,34,33-14-94-73-59-36,165-36,165l180,31s84.1-34.6,141.8-58c6.4,3,15,4.6,26.7,3.5,44-4,10,60,10,60s20,75,99,113,108-28,92-11-156-80-156-80-3-65.4-2.6-109.5c44.7-9.2,169.2-38.4,199.1-85C659.2,615.2,504.2,707.2,446.2,598.2ZM121.4,410c1.6-7.7,3.3-16.3,5.1-25.9s3.2-17.1,4.9-25.4c11.9-11.3,20.9-24.5,32.8-24.5,21,0,77,40,97,49C277.2,390.4,167.1,404.5,121.4,410Zm125-53.8.2.2-.4-.2Zm-91.2-82c9.5-7,40.7,24.1,69.6,56.7-29.8-7.5-61.7-15.7-83.9-16.6C146.2,292.8,151.2,277.3,155.2,274.2Zm81,267c0-.6.7-.6,2,.1C237,542.7,236.2,543,236.2,541.2Z"/></g></g></svg>