<svg xmlns="http://www.w3.org/2000/svg" viewBox="0 0 417.7 898.5"><defs><style>.cls-1{fill:#fff;}</style></defs><title>yuge01</title><g id="レイヤー_2" data-name="レイヤー 2"><g id="レイヤー_1のコピー" data-name="レイヤー 1のコピー"><path class="cls-1" d="M223.1,77.9c-20-8.8-107.8-36.1-107.8-36.1l4,67s57.2-8.8,67.4-5.7,86.9,28.3,81.1,61.3,39.4,59.4,39.4,59.4-.2,67-82.2,48.3-150.9-63-150.9-63S-3.5,147.6.1,147.6,43.5,255.9,55.6,276s58.2-66.1,78.7-59.8,119.9,8.9,119.9,8.9l35.6-1.2s-78.7-72-78.8-83.7-38.6-17.9-38.6-17.9l-46.1,51.4S73.9,60.1,75,43C76,28.2,175.4,5.6,201.2,0l-2.8,28.5S214.5,67.3,223.1,77.9Z"/><path class="cls-1" d="M236.4,678.6c-.9.4-2.3-.6-3.8-2.6C235.7,677.4,237.2,678.4,236.4,678.6Z"/><path class="cls-1" d="M210.6,598.1l3.8-38c2.2,19.4,2.3,36.7,2.3,36.7Z"/><path class="cls-1" d="M95.7,279.3c5.5,12.8-1.8,4.2-10.7-6.8C89,270.9,92.8,272.4,95.7,279.3Z"/><path class="cls-1" d="M271.6,474.3l-41-100S261.3,435.4,271.6,474.3Z"/><path class="cls-1" d="M308.2,532.6c-34.3,116.2-77.7,111.1-77.7,111.1L105.4,677.3s2.7,13.8,6.6,43.6l54.5-.3,58.7,28.3c21,6.6,51.7,34.8,70.9,41.8,0-5.4-1.2-12.5-3.3-20.5l9,22h1.8c10.1-.1,7.1,4.1,1.5,7.7l4.6,11.4-9.8,38.1-62.6-10.6L235.6,856c-.7-5.9-1.6-12-2.7-17.8l-29.1-5-68.3,65.3s-40.4-14.7-29.1-37.1c3.3-6.4,3.7-19.4,2.2-34.5-13.3-18-27.9-50.8-12.2-54.5-6.5-18.1-14.6-30.7-22.5-27.9-4.7,1.7-8.3,1.9-11.3,1.1l-3.2,1.1,2-1.5c-9.4-3.4-10.5-16.5-10.5-16.5S73.4,653,70.7,603s11.1-56.4,16-56.5c2.2,0,11.5,11.9,19.5,21.9C96,572.5,84.3,596.8,82.1,603c-2.9,8.5-6.6,106.4-6.6,106.4s39.9-72.6,63.5-69.5,80.5-22.8,92-26,20.3-24.6,62.8-77-20.2-53.1-32.2-50.9-73.4,135.6-73.4,135.6l-24.8-34s-27.3-23.2-34.6-37,51.3-95,51.3-95-14.1,66,1.9,127.7l2.4,9.2c13.8-17.3,84.2-145.9,84.2-145.9s-115.8-31.3-122.4-35.5-25.4-18-25.4-18,24-3.3,36.1,4.1,127.2,19.5,127.2,19.5L172.3,348.1s-79.4,7.9-83.5,26,2.1,69.2,15.5,85.1,15.4-40.5,20.3-35.2-7.9,100-43.7,63S58.3,311.5,58.3,311.5l108.2-33.6s50.8,36.7,85.8,61.4c3.8-3.2,9-5,16-3.9,26.5,4.1,5.7-63.9,5.7-63.9s11.6-79.9,59-120.5,65.2,29.4,55.5,11.4S295,248,295,248s-1.5,69.7-1,116.6c26.9,9.6,102.1,40.3,120.4,89.7C436.4,513.8,342.5,416.4,308.2,532.6ZM113.7,733.9c1,8.3,2.1,17.4,3.2,27.6s2,18.2,3,27c7.3,12,12.8,26,20,25.9,12.6,0,46.1-42.8,58.1-52.4C207.6,754.3,141.2,739.6,113.7,733.9Zm75.5,56.9v-.2h-.1Zm-54.4,87.5c5.7,7.5,24.4-25.7,41.5-60.6-17.8,8.1-37,17-50.3,18C129.2,858.6,132.3,875.1,134.8,878.3Zm47.3-284.4c0,.7.4.7,1.1,0S182.1,592.1,182.1,593.9Z"/></g></g></svg>